<svg width="527" height="466" viewBox="0 0 527 466" fill="none" xmlns="http://www.w3.org/2000/svg">
<path d="M317 121.5C317 179.214 260 158 184.5 149C105.5 171 36.0005 179.214 36.0005 121.5C36.0005 63.7862 98.9045 17 176.5 17C254.096 17 317 63.7862 317 121.5Z" fill="black"/>
<path d="M38.5005 5L60.0005 65.5L104 33.5L38.5005 5Z" fill="black"/>
<path d="M301.5 0L280 60.5L236 28.5L301.5 0Z" fill="black"/>
<path d="M167 216C191 186.4 163 157 146 146L198.5 136C210.167 150.5 237.6 182.7 254 195.5C274.5 211.5 247 268 233.5 284C220 300 231 331.5 303 319C375 306.5 496.5 403 455 435.5C413.5 468 258 471 87.0005 460C-83.9995 449 137 253 167 216Z" fill="black"/>
<path d="M429.5 271C508.7 293 457.5 363.5 422 396H450C493.734 367.239 540.757 300.772 522 274.5C503.545 248.65 463.834 231.167 437 223.5C440.834 210 443.2 181 422 173C395.5 163 330.5 243.5 429.5 271Z" fill="black"/>
<path d="M157.435 84.9201C161.126 98.1308 142.244 101.38 116.08 108.691C91.2343 129.885 66.376 124.607 62.6845 111.396C58.993 98.1855 77.2111 81.5492 103.376 74.238C129.54 66.9268 153.743 71.7093 157.435 84.9201Z" fill="#D9D9D9"/>
<path d="M191.261 85.42C188.76 98.9069 207.856 100.463 234.568 105.417C261.2 124.315 285.49 116.846 287.992 103.359C290.493 89.8722 270.867 74.9232 244.155 69.9694C217.444 65.0157 193.762 71.9331 191.261 85.42Z" fill="#D9D9D9"/>
<ellipse cx="87.5005" cy="100.5" rx="14.5" ry="15.5" fill="black"/>
<ellipse cx="243.5" cy="90.5" rx="14.5" ry="15.5" fill="black"/>
<path d="M168.5 121L175.5 94.5L186.5 118.5" stroke="white" stroke-linecap="round"/>
<path d="M2.00049 146L65.4454 129" stroke="black" stroke-width="4" stroke-linecap="round"/>
<path d="M12.1717 176.579L68.2742 142.421" stroke="black" stroke-width="4" stroke-linecap="round"/>
<path d="M362.239 111.796L296.931 104.79" stroke="black" stroke-width="4" stroke-linecap="round"/>
<path d="M356.909 143.578L296.207 118.487" stroke="black" stroke-width="4" stroke-linecap="round"/>
</svg>
